#!OML:ASF H:\ManfredObstacles\Project 1\Capture day 1\Session 1\Male.ASF
:FULLY-SPECIFIED
:DEGREES
568
root -2.2059 16.3598 -10.8319 -166.793 -11.1701 -176.685
lowerback -10.4283 -3.23627 0.450431
upperback 1.06802 -4.52606 1.73245
thorax 7.08427 -2.24602 0.825255
lowerneck -0.666672 -2.94828 -6.7204
upperneck -14.8043 -3.92421 12.1724
head -3.86197 -2.68439 5.02863
rclavicle -1.38652e-014 -3.97569e-016
rhumerus -26.6511 -15.1102 -85.1299
rradius 27.8801
rwrist 31.685
rhand -0.672972 -6.55267
rfingers 7.12502
rthumb 24.9456 -34.9445
lclavicle -1.38652e-014 -3.97569e-016
lhumerus -20.0367 8.16907 88.9689
lradius 20.0508
lwrist -27.8703
lhand -9.21594 9.43215
lfingers 7.12502
lthumb 16.7386 38.7306
rfemur -35.468 -6.89177 28.3629
rtibia 35.3835
rfoot -18.5793 16.6076
rtoes 22.2113
lfemur -0.603241 -8.33644 -12.0212
ltibia 27.2909
lfoot 15.0427 -14.7773
ltoes 1.41479
569
root -2.20071 16.3645 -10.8824 -166.779 -11.3439 -176.696
lowerback -10.3036 -3.29685 0.508287
upperback 0.998562 -4.60907 1.70791
thorax 6.93404 -2.28526 0.763333
lowerneck -0.53427 -2.85351 -6.4445
upperneck -14.871 -3.80929 11.9174
head -3.92961 -2.63123 4.90566
rclavicle -6.95746e-015 2.38542e-015
rhumerus -26.5241 -14.2428 -85.7771
rradius 28.1576
rwrist 30.9718
rhand -0.997779 -6.49594
rfingers 7.12502
rthumb 24.6343 -34.9306
lclavicle -6.95746e-015 2.38542e-015
lhumerus -19.8946 7.1059 89.4314
lradius 20.8138
lwrist -26.5862
lhand -9.29676 9.40383
lfingers 7.12502
lthumb 16.6608 38.7088
rfemur -35.2979 -7.03798 28.4171
rtibia 35.3938
rfoot -18.7376 16.6151
rtoes 23.6858
lfemur -0.526369 -8.37152 -11.9683
ltibia 27.2858
lfoot 15.4359 -14.8714
ltoes 0.380295
570
root -2.19641 16.3681 -10.9226 -166.721 -11.4697 -176.558
lowerback -10.1887 -3.24841 0.776107
upperback 0.916474 -4.57448 1.68802
thorax 6.75794 -2.26035 0.608634
lowerneck -0.362086 -2.8834 -6.12073
upperneck -15.0357 -3.86796 11.6216
head -4.01922 -2.66864 4.76877
rclavicle 2.78299e-014 7.95139e-015
rhumerus -26.4924 -13.8255 -86.2231
rradius 28.45
rwrist 30.6389
rhand -1.12704 -6.34867
rfingers 7.12502
rthumb 24.5104 -34.8001
lclavicle 2.78299e-014 7.95139e-015
lhumerus -19.771 6.25751 89.8881
lradius 21.5637
lwrist -25.6055
lhand -9.39466 9.3089
lfingers 7.12502
lthumb 16.5665 38.6218
rfemur -35.2438 -7.01877 28.6183
rtibia 35.4229
rfoot -18.8627 16.5013
rtoes 24.0869
lfemur -0.533789 -8.28553 -11.7391
ltibia 27.2032
lfoot 15.8718 -14.8565
ltoes -0.18015
571
root -2.18806 16.3682 -10.9591 -166.797 -11.6197 -176.59
lowerback -9.90436 -3.21466 0.771671
upperback 0.90695 -4.52087 1.67018
thorax 6.5845 -2.2354 0.618191
lowerneck -0.799284 -2.9262 -6.31182
upperneck -14.6354 -3.90394 11.8556
head -3.81 -2.66569 4.85062
rclavicle 3.4837e-014 -5.96354e-016
rhumerus -26.4269 -13.593 -86.488
rradius 28.6976
rwrist 30.6317
rhand -1.08411 -6.26217
rfingers 7.12502
rthumb 24.5516 -34.7081
lclavicle 3.4837e-014 -5.96354e-016
lhumerus -19.5638 5.45723 90.4052
lradius 22.2535
lwrist -24.9567
lhand -9.27808 9.41869
lfingers 7.12502
lthumb 16.6787 38.7221
rfemur -35.0147 -6.89535 28.579
rtibia 35.4643
rfoot -19.0617 16.1598
rtoes 24.4995
lfemur -0.363558 -8.28679 -11.6735
ltibia 27.0817
lfoot 16.3974 -14.8331
ltoes 0.504548
572
root -2.18537 16.3702 -11.0051 -166.55 -11.8386 -176.636
lowerback -10.1943 -3.18459 0.795699
upperback 0.873114 -4.48818 1.65023
thorax 6.70932 -2.21694 0.573036
lowerneck -1.00095 -3.01819 -6.41659
upperneck -14.4828 -4.0167 11.9918
head -3.7129 -2.71356 4.90228
rclavicle -4.5969e-014 -3.97569e-015
rhumerus -26.3616 -13.4113 -86.6982
rradius 28.8619
rwrist 30.7082
rhand -0.979081 -6.2718
rfingers 7.12502
rthumb 24.6523 -34.704
lclavicle -4.5969e-014 -3.97569e-015
lhumerus -19.2771 4.46287 90.9369
lradius 22.7595
lwrist -24.2622
lhand -9.27136 9.40051
lfingers 7.12502
lthumb 16.6852 38.7034
rfemur -35.1201 -7.06935 28.6307
rtibia 35.5024
rfoot -19.1956 16.1357
rtoes 25.4994
lfemur -0.472452 -8.38145 -11.5936
ltibia 26.9356
lfoot 16.9394 -14.6168
ltoes 0.968125
573
root -2.18315 16.3735 -11.0333 -166.541 -11.8201 -176.737
lowerback -10.012 -3.09199 0.801388
upperback 0.831727 -4.35102 1.53709
thorax 6.55066 -2.14795 0.485222
lowerneck -0.932143 -3.1009 -6.49173
upperneck -14.5207 -4.11442 12.1883
head -3.71821 -2.77161 4.98056
rclavicle -4.72114e-015 6.36111e-015
rhumerus -26.4107 -13.2723 -86.9188
rradius 28.9413
rwrist 30.7823
rhand -0.863158 -6.31087
rfingers 7.12502
rthumb 24.7634 -34.7278
lclavicle -4.72114e-015 6.36111e-015
lhumerus -19.1204 3.39743 91.3625
lradius 23.2018
lwrist -23.4378
lhand -9.41884 9.12165
lfingers 7.12502
lthumb 16.5432 38.4365
rfemur -35.0624 -7.06482 28.5534
rtibia 35.5899
rfoot -19.3805 16.0258
rtoes 25.7352
lfemur -0.280459 -8.36876 -11.701
ltibia 26.6946
lfoot 17.4299 -14.3019
ltoes 1.00389
574
root -2.17983 16.3776 -11.0608 -166.46 -11.8948 -176.726
lowerback -9.94329 -3.05745 0.853157
upperback 0.757549 -4.30879 1.52606
thorax 6.42795 -2.12699 0.457643
lowerneck -0.892505 -3.15736 -6.60799
upperneck -14.5347 -4.18067 12.3293
head -3.71515 -2.80674 5.04652
rclavicle -5.34731e-014 9.93923e-015
rhumerus -26.4976 -13.0775 -87.0156
rradius 28.9339
rwrist 30.9513
rhand -0.927637 -6.23581
rfingers 7.12502
rthumb 24.7016 -34.6612
lclavicle -5.34731e-014 9.93923e-015
lhumerus -19.048 2.43983 91.8178
lradius 23.694
lwrist -22.5479
lhand -9.57216 8.9707
lfingers 7.12502
lthumb 16.3956 38.2978
rfemur -35.1811 -7.0542 28.6046
rtibia 35.8008
rfoot -19.5141 15.9088
rtoes 25.834
lfemur -0.148961 -8.30111 -11.6264
ltibia 26.2874
lfoot 17.952 -14.1511
ltoes 1.42054
